# xmcd
#
# Track frame offsets: 
#        150
#        11089
#        22387
#        35332
#        51340
#        64447
#        76396
#        90315
#        100919
#        115028
#        129491
#        144176
#        156144
#        170189
#        181927
#        194353
#        207583
#
# Disc length: 2976 seconds
#
# Revision: 0
# Processed by: cddbd v1.5.2PL0 Copyright (c) Steve Scherf et al.
# Submitted via: ExactAudioCopy v0.99pb2
#
DISCID=ef0b9e11
DTITLE=Dion - Don't Start Me Talkin' Columbia Recordings 1962-1965
DYEAR=1900
DGENRE=
TTITLE0=Too Much Monkey Business
TTITLE1=Spoonful
TTITLE2=Sweet Papa Di
TTITLE3=The Seventh Son
TTITLE4=Two Ton Feather
TTITLE5=You Can't Judge a Book by It's Cover
TTITLE6=Fever
TTITLE7=Baby Please Don't Go
TTITLE8=Chicago Blues
TTITLE9=Kickin' Child
TTITLE10=Work Song
TTITLE11=I'm Your Hoochie Coochie Man
TTITLE12=Drop Down Baby
TTITLE13=Don't Start Me Talkin'
TTITLE14=Troubled Mind
TTITLE15=Johnny B. Goode
TTITLE16=All I Want to Do Is Live My Life
EXTD=
EXTT0=
EXTT1=
EXTT2=
EXTT3=
EXTT4=
EXTT5=
EXTT6=
EXTT7=
EXTT8=
EXTT9=
EXTT10=
EXTT11=
EXTT12=
EXTT13=
EXTT14=
EXTT15=
EXTT16=
PLAYORDER=
